<svg version="1.1" xmlns="http://www.w3.org/2000/svg" xmlns:xlink="http://www.w3.org/1999/xlink" width="340.0869" height="134.55424" viewBox="0,0,340.0869,134.55424"><defs><linearGradient x1="98.15881" y1="213.57413" x2="98.15881" y2="234.9395" gradientUnits="userSpaceOnUse" id="color-1"><stop offset="0" stop-color="#000000"/><stop offset="1" stop-color="#141414"/></linearGradient><linearGradient x1="98.34801" y1="246.71179" x2="98.34801" y2="234.79467" gradientUnits="userSpaceOnUse" id="color-2"><stop offset="0" stop-color="#000000"/><stop offset="1" stop-color="#141414"/></linearGradient><linearGradient x1="103.01459" y1="184.3381" x2="92.60055" y2="215.79247" gradientUnits="userSpaceOnUse" id="color-3"><stop offset="0" stop-color="#000000"/><stop offset="1" stop-color="#141414"/></linearGradient><linearGradient x1="121.49626" y1="122.63695" x2="98.3297" y2="191.43109" gradientUnits="userSpaceOnUse" id="color-4"><stop offset="0" stop-color="#a90ace" stop-opacity="0"/><stop offset="1" stop-color="#a90ace"/></linearGradient><linearGradient x1="97.50847" y1="198.19736" x2="107.34828" y2="170.45805" gradientUnits="userSpaceOnUse" id="color-5"><stop offset="0" stop-color="#a90ace"/><stop offset="1" stop-color="#dc0dff"/></linearGradient><linearGradient x1="276.56704" y1="142.47332" x2="276.56704" y2="179.21423" gradientUnits="userSpaceOnUse" id="color-6"><stop offset="0" stop-color="#000000"/><stop offset="1" stop-color="#141414"/></linearGradient><linearGradient x1="276.35632" y1="187.70234" x2="276.35632" y2="247.27712" gradientUnits="userSpaceOnUse" id="color-7"><stop offset="0" stop-color="#000000"/><stop offset="1" stop-color="#141414"/></linearGradient></defs><g transform="translate(-69.95655,-112.72288)"><g data-paper-data="{&quot;isPaintingLayer&quot;:true}" fill-rule="nonzero" stroke-linejoin="miter" stroke-miterlimit="10" stroke-dasharray="" stroke-dashoffset="0" style="mix-blend-mode: normal"><g stroke="none" stroke-linecap="butt"><path d="M90.89327,234.9395v-21.36538c0,0 4.34974,0.83799 6.73149,0.83799c2.45943,0 7.79958,-0.83799 7.79958,-0.83799v21.36538z" fill="url(#color-1)" stroke-width="0"/><path d="M126.73947,234.79467v11.91711h-56.78292v-11.91711z" data-paper-data="{&quot;index&quot;:null}" fill="url(#color-2)" stroke-width="NaN"/></g><g data-paper-data="{&quot;index&quot;:null}"><path d="M71.80328,174.40769c0.04015,-0.12127 0.08094,-0.24218 0.12237,-0.36265c3.81915,1.29513 7.6395,2.58682 11.46103,3.87502c-0.02095,0.06131 -0.04163,0.12279 -0.06204,0.18444c-3.52658,10.65162 2.24939,22.14531 12.90102,25.67189c10.65163,3.52659 22.14532,-2.2494 25.6719,-12.90103c0.01038,-0.03135 0.02067,-0.06273 0.0309,-0.0941c4.04173,1.33501 8.08473,2.66614 12.12902,3.99339c-0.02378,0.07354 -0.04783,0.14706 -0.07215,0.22054c-5.68508,17.1711 -24.21367,26.48236 -41.38478,20.79728c-17.1711,-5.68508 -26.48235,-24.21366 -20.79727,-41.38477z" fill="url(#color-3)" stroke="none" stroke-width="0" stroke-linecap="butt"/><path d="M100.62284,192.2033l-9.83044,-79.48042l61.27904,20.21032z" fill="url(#color-4)" stroke="#000000" stroke-width="0" stroke-linecap="round"/><path d="M107.41895,170.48332c7.64603,2.75621 11.61001,11.18891 8.85381,18.83495c-2.75621,7.64603 -11.18892,11.61002 -18.83496,8.85381c-7.64603,-2.75621 -11.61002,-11.18892 -8.85381,-18.83496c2.75621,-7.64603 11.18892,-11.61001 18.83496,-8.8538z" fill="url(#color-5)" stroke="none" stroke-width="0.5" stroke-linecap="butt"/></g><g stroke="none" stroke-width="1" stroke-linecap="square"><path d="M143.09064,178.70511v-35.72268h5.97586v14.89153h16.72463v-14.89153h5.97585v35.72268h-5.97585v-15.40063h-16.72463v15.40063zM177.90411,160.84377c0,-3.76177 0.62087,-7.00029 1.86261,-9.71555c1.24174,-2.74355 3.03966,-4.86485 5.39379,-6.3639c2.35413,-1.52733 5.14803,-2.291 8.38172,-2.291c3.20782,0 5.98879,0.76367 8.34292,2.291c2.35413,1.49905 4.16499,3.62035 5.43259,6.3639c1.29348,2.71526 1.94021,5.9255 1.94021,9.6307c0,3.76177 -0.64674,7.01442 -1.94021,9.75797c-1.26761,2.74355 -3.07846,4.87899 -5.43259,6.40633c-2.35413,1.52733 -5.1351,2.291 -8.34292,2.291c-3.23369,0 -6.01466,-0.76367 -8.34292,-2.291c-2.32826,-1.52733 -4.12618,-3.66278 -5.39379,-6.40633c-1.26761,-2.74355 -1.90141,-5.96792 -1.90141,-9.67312zM184.1516,160.84377c0,4.01633 0.78902,7.15586 2.36705,9.41857c1.57804,2.26271 3.91923,3.39408 7.02357,3.39408c3.02674,0 5.35498,-1.13137 6.98476,-3.39408c1.65565,-2.26271 2.48347,-5.40224 2.48347,-9.41857c0,-4.07289 -0.81488,-7.21241 -2.44466,-9.41857c-1.62978,-2.23443 -3.97097,-3.35165 -7.02357,-3.35165c-3.10434,0 -5.44554,1.11722 -7.02357,3.35165c-1.57804,2.20615 -2.36705,5.34567 -2.36705,9.41857zM215.41532,178.70511v-35.72268h5.97586v30.2073h15.40528v5.51538zM238.55209,160.84377c0,-3.76177 0.62087,-7.00029 1.8626,-9.71555c1.24174,-2.74355 3.03967,-4.86485 5.39379,-6.3639c2.35413,-1.52733 5.14803,-2.291 8.38172,-2.291c3.20782,0 5.98878,0.76367 8.34291,2.291c2.35413,1.49905 4.16499,3.62035 5.43259,6.3639c1.29348,2.71526 1.94021,5.9255 1.94021,9.6307c0,3.76177 -0.64674,7.01442 -1.94021,9.75797c-1.26761,2.74355 -3.07847,4.87899 -5.43259,6.40633c-2.35413,1.52733 -5.13509,2.291 -8.34291,2.291c-3.23369,0 -6.01466,-0.76367 -8.34292,-2.291c-2.32826,-1.52733 -4.12619,-3.66278 -5.3938,-6.40633c-1.26761,-2.74355 -1.90141,-5.96792 -1.90141,-9.67312zM244.79957,160.84377c0,4.01633 0.78902,7.15586 2.36706,9.41857c1.57804,2.26271 3.91923,3.39408 7.02357,3.39408c3.02673,0 5.35498,-1.13137 6.98476,-3.39408c1.65565,-2.26271 2.48347,-5.40224 2.48347,-9.41857c0,-4.07289 -0.81489,-7.21241 -2.44467,-9.41857c-1.62978,-2.23443 -3.97096,-3.35165 -7.02356,-3.35165c-3.10434,0 -5.44553,1.11722 -7.02357,3.35165c-1.57804,2.20615 -2.36706,5.34567 -2.36706,9.41857zM291.81782,179.21423c-3.67347,0 -6.76488,-0.73539 -9.27422,-2.20615c-2.48347,-1.49905 -4.35901,-3.62034 -5.62662,-6.36389c-1.26761,-2.74355 -1.90141,-5.98207 -1.90141,-9.71555c0,-3.79005 0.67261,-7.05686 2.01782,-9.80041c1.37108,-2.74355 3.32423,-4.86485 5.85944,-6.3639c2.56108,-1.52733 5.62661,-2.291 9.1966,-2.291c2.38,0 4.46249,0.35355 6.24749,1.06065c1.81086,0.67881 3.3889,1.6829 4.73412,3.01225l-1.97902,5.04869c-0.98304,-0.84852 -1.92728,-1.51319 -2.83271,-1.99402c-0.90544,-0.50911 -1.83674,-0.8768 -2.79391,-1.10307c-0.95717,-0.22627 -2.06956,-0.3394 -3.33716,-0.3394c-3.56999,0 -6.27335,1.10307 -8.11009,3.30922c-1.83673,2.20615 -2.7551,5.37395 -2.7551,9.50342c0,4.12947 0.86663,7.28313 2.59988,9.46099c1.75913,2.14958 4.50129,3.22438 8.2265,3.22438c1.26761,0 2.53521,-0.14142 3.80282,-0.42426c1.29348,-0.28284 2.56108,-0.66468 3.80282,-1.14551l-1.12532,2.71527v-10.69135h-7.64443v-4.75171h12.61138v17.18252c-1.50043,0.84852 -3.31129,1.51319 -5.43259,1.99402c-2.09543,0.45254 -4.19085,0.67882 -6.28629,0.67882zM310.3492,178.70511v-35.72268h14.27997c3.56999,0 6.33803,0.93337 8.30411,2.80011c1.96609,1.86675 2.94912,4.45473 2.94912,7.76396c0,2.17786 -0.43978,4.04461 -1.31934,5.60023c-0.87956,1.55562 -2.14717,2.75769 -3.80282,3.60621c-1.62978,0.82023 -3.55705,1.23035 -5.78184,1.23035l0.65967,-0.9758h1.59097c1.29348,0 2.44467,0.36769 3.45358,1.10308c1.03478,0.73539 1.87553,1.86674 2.52227,3.39408l4.77292,11.20046h-6.59672l-4.81173,-11.5823c-0.43978,-1.18793 -1.09946,-1.96573 -1.97902,-2.33342c-0.87956,-0.36769 -1.94022,-0.55154 -3.18195,-0.55154h-5.08335v14.46726zM316.32505,159.40129h7.334c2.09543,0 3.6864,-0.48082 4.77292,-1.44248c1.11239,-0.96166 1.66859,-2.37586 1.66859,-4.2426c0,-1.83846 -0.5562,-3.22438 -1.66859,-4.15775c-1.08652,-0.96166 -2.67749,-1.44248 -4.77292,-1.44248h-7.334zM338.66303,178.70511l14.78442,-35.72268h5.00575l14.97843,35.72268h-6.09226l-3.99683,-10.01254l2.40586,1.73947h-19.59615l2.52228,-1.73947l-3.99684,10.01254zM355.89212,149.98272l-6.51911,16.92797l-1.20293,-1.56976h15.5605l-0.9701,1.56976l-6.67433,-16.92797zM377.05984,178.70511v-35.72268h5.23858l11.99051,29.52848h-1.43575l12.02931,-29.52848h5.16096v35.72268h-5.39378v-26.47381h1.66858l-10.9816,26.47382h-3.57l-10.9816,-26.47381h1.70739v26.47382z" fill="url(#color-6)"/><path d="M170.93668,247.27712c-6.03682,0 -11.115,-1.20015 -15.23455,-3.60045c-4.11955,-2.4282 -7.22864,-5.86119 -9.32728,-10.29894c-2.07273,-4.43776 -3.10909,-9.69886 -3.10909,-15.78333c0,-6.11238 1.11409,-11.40141 3.34228,-15.86707c2.2541,-4.46567 5.46682,-7.9126 9.63819,-10.3408c4.19728,-2.45612 9.24956,-3.68418 15.15683,-3.68418c3.91227,0 7.34523,0.57217 10.29887,1.71649c2.95364,1.11641 5.54456,2.73522 7.77274,4.85641l-3.26454,8.20566c-1.63227,-1.36761 -3.18682,-2.45612 -4.66364,-3.26552c-1.47682,-0.83731 -3.00546,-1.42342 -4.58591,-1.75835c-1.58046,-0.36283 -3.40705,-0.54426 -5.47978,-0.54426c-5.90727,0 -10.3766,1.80022 -13.40796,5.40066c-3.00546,3.57253 -4.50818,8.6941 -4.50818,15.36469c0,6.6985 1.425,11.8061 4.275,15.32281c2.87591,3.4888 7.39705,5.2332 13.56342,5.2332c2.07273,0 4.15841,-0.22328 6.25705,-0.66985c2.12455,-0.44657 4.21023,-1.07456 6.25705,-1.88396l-1.82659,4.43776v-17.33237h-12.59183v-7.70327h20.7532v27.84063c-2.51318,1.36761 -5.49273,2.44216 -8.93864,3.22365c-3.44591,0.75358 -6.90478,1.13038 -10.3766,1.13038zM195.494,246.43981l24.32865,-57.90015h8.2391l24.63956,57.90015h-10.02682l-6.5291,-16.24386l3.96409,2.84686h-32.25684l4.11955,-2.84686l-6.56796,16.24386zM223.86447,199.88524l-10.76524,27.42198l-1.98205,-2.55381h25.61116l-1.59341,2.55381l-10.95955,-27.42198zM258.7059,246.43981v-57.90015h8.62773l19.74275,47.89426h-2.37069l19.74274,-47.89426h8.55v57.90015h-8.93864v-42.95413h2.75932l-18.07161,42.95413h-5.86841l-18.0716,-42.95413h2.83705v42.95413zM324.96633,246.43981v-57.90015h36.22093v8.2894h-26.77706v16.03453h25.02821v8.37312h-25.02821v16.82998h26.77706v8.37313zM388.34393,247.27712c-4.32685,0 -8.31686,-0.58613 -11.97005,-1.75836c-3.62727,-1.20015 -6.73637,-2.8329 -9.32728,-4.89827l3.07022,-8.2894c1.71,1.31179 3.51068,2.41426 5.40205,3.30739c1.89137,0.89313 3.89932,1.57693 6.02387,2.05141c2.12455,0.47448 4.39161,0.71172 6.80118,0.71172c4.01592,0 6.90478,-0.71172 8.6666,-2.13515c1.78773,-1.42343 2.68159,-3.29343 2.68159,-5.60999c0,-2.00955 -0.60886,-3.54462 -1.82659,-4.60522c-1.21773,-1.0885 -3.40705,-1.98164 -6.56796,-2.6794l-8.58891,-1.88396c-4.94864,-1.11641 -8.64069,-2.95851 -11.07614,-5.52626c-2.43546,-2.56776 -3.65318,-6.01469 -3.65318,-10.34081c0,-3.62835 0.8809,-6.78223 2.64272,-9.46163c1.78773,-2.6794 4.275,-4.75872 7.46182,-6.23798c3.21273,-1.47925 6.95661,-2.21888 11.23164,-2.21888c3.80864,0 7.33227,0.60008 10.57091,1.80022c3.26455,1.17224 5.99796,2.84687 8.20024,5.02388l-3.07022,7.87073c-2.17636,-1.95373 -4.56,-3.40507 -7.15091,-4.35402c-2.59091,-0.97687 -5.49273,-1.4653 -8.70546,-1.4653c-3.6014,0 -6.41254,0.75358 -8.43345,2.26074c-1.995,1.50716 -2.9925,3.57253 -2.9925,6.19611c0,2.03746 0.62182,3.65627 1.86545,4.85641c1.24363,1.20014 3.36819,2.13515 6.37364,2.805l8.55004,1.80022c5.07819,1.0885 8.835,2.88873 11.27046,5.40067c2.43546,2.48403 3.65319,5.83327 3.65319,10.04774c0,3.43298 -0.86795,6.46126 -2.60386,9.08484c-1.71,2.59567 -4.14546,4.61917 -7.30637,6.07052c-3.16091,1.45134 -6.89182,2.17701 -11.19273,2.17701z" fill="url(#color-7)"/></g></g></g></svg>
